<svg width="16" height="13" viewBox="0 0 16 13" fill="none" xmlns="http://www.w3.org/2000/svg">
<path fill-rule="evenodd" clip-rule="evenodd" d="M15.2284 1.05987C15.018 3.20082 14.1038 8.39802 13.6397 10.7963C13.4433 11.812 13.0551 12.1517 12.681 12.1845C11.8662 12.2567 11.2478 11.6642 10.4586 11.1653C9.2241 10.3843 8.52617 9.89792 7.32788 9.13499C5.94254 8.25355 6.84038 7.76939 7.6295 6.97824C7.83642 6.77058 11.4255 3.6184 11.4956 3.33287C11.5038 3.29675 11.5131 3.16358 11.4301 3.0936C11.3471 3.02363 11.2267 3.04733 11.1402 3.06652C11.0163 3.0936 9.04407 4.35199 5.22239 6.84168C4.66241 7.21299 4.15504 7.39356 3.70027 7.38453C3.19991 7.37438 2.2366 7.11141 1.51996 6.88569C0.641995 6.61032 -0.0571058 6.4636 0.00368555 5.99636C0.0352503 5.75258 0.382463 5.50316 1.04649 5.2481C5.13588 3.52811 7.86331 2.39387 9.22761 1.84537C13.1241 0.281136 13.9331 0.00914315 14.4615 0.000114361C15.1232 -0.00891443 15.2822 0.518141 15.2284 1.05987Z" fill="white"/>
</svg>
