<svg width="16" height="16" viewBox="0 0 16 16" fill="none" xmlns="http://www.w3.org/2000/svg">
<path fill-rule="evenodd" clip-rule="evenodd" d="M13.6069 2.32461C12.1102 0.826117 10.1172 0 7.99629 0C3.62491 0 0.0666822 3.55638 0.0648299 7.92776C0.0648299 9.32438 0.429729 10.6895 1.12433 11.8916L0 16L4.20468 14.8979C5.36235 15.5295 6.66821 15.8629 7.99444 15.8629H7.99815C12.3695 15.8629 15.9278 12.3066 15.9296 7.93332C15.9296 5.81431 15.1053 3.82311 13.6087 2.32461H13.6069ZM7.99629 14.5237H7.99444C6.81083 14.5237 5.65131 14.2051 4.63996 13.605L4.39917 13.4624L1.90414 14.1162L2.57097 11.6842L2.41352 11.4341C1.75411 10.3857 1.40588 9.17249 1.40588 7.92776C1.40588 4.29359 4.36397 1.33735 8.00185 1.33735C9.76337 1.33735 11.4175 2.02454 12.6622 3.26927C13.9069 4.51586 14.5923 6.16995 14.5904 7.93147C14.5904 11.5656 11.6323 14.5219 7.99815 14.5219L7.99629 14.5237ZM11.6119 9.5874C11.4138 9.48738 10.4395 9.00949 10.2579 8.94281C10.0764 8.87613 9.94489 8.84279 9.81153 9.04283C9.68002 9.24103 9.3003 9.68743 9.18361 9.81894C9.06876 9.95045 8.95207 9.96712 8.75388 9.86895C8.55568 9.76893 7.91665 9.56147 7.16092 8.88539C6.57189 8.35934 6.17365 7.71104 6.05881 7.51285C5.94397 7.31466 6.04584 7.20722 6.14587 7.10905C6.23478 7.02014 6.34406 6.87752 6.44223 6.76268C6.5404 6.64784 6.57374 6.56448 6.64043 6.43297C6.70711 6.30146 6.67377 6.18476 6.62376 6.08659C6.57374 5.98657 6.17736 5.01227 6.0125 4.61588C5.85135 4.22876 5.68835 4.28247 5.5661 4.27506C5.45126 4.26951 5.3179 4.26765 5.18639 4.26765C5.05487 4.26765 4.84001 4.31767 4.65849 4.51586C4.47696 4.71405 3.96573 5.1938 3.96573 6.16809C3.96573 7.14239 4.67516 8.0852 4.77518 8.21672C4.87335 8.34823 6.1718 10.3505 8.16115 11.2081C8.63348 11.4119 9.00393 11.5342 9.29104 11.6249C9.76522 11.7749 10.1987 11.7546 10.5395 11.7027C10.921 11.6453 11.712 11.223 11.8768 10.7599C12.0417 10.2968 12.0417 9.90044 11.9917 9.81709C11.9417 9.73373 11.8101 9.68557 11.6119 9.58555V9.5874Z" fill="white"/>
</svg>
