<svg width="38" height="51" viewBox="0 0 38 51" fill="none" xmlns="http://www.w3.org/2000/svg">
<path fill-rule="evenodd" clip-rule="evenodd" d="M19 0C18.8328 0 18.6661 0.00215918 18.5 0.00645118C8.2377 0.271556 0 8.67377 0 19V39C0 45.6274 5.37258 51 12 51H26C32.6274 51 38 45.6274 38 39V19C38 18.8328 37.9978 18.6661 37.9935 18.5C37.7327 8.40384 29.5962 0.267264 19.5 0.00645119C19.3339 0.00215918 19.1672 0 19 0ZM18.5 1.00681C8.95617 1.2671 1.2671 8.95617 1.00681 18.5H18.5V1.00681ZM19.5 18.5V1.00681C29.0438 1.2671 36.7329 8.95617 36.9932 18.5H19.5ZM37 19.5H1V39C1 45.0751 5.92487 50 12 50H26C32.0751 50 37 45.0751 37 39V19.5Z" fill="black"/>
</svg>
