<svg width="44" height="37" viewBox="0 0 44 37" fill="none" xmlns="http://www.w3.org/2000/svg">
<path d="M9.40323 16.972C9.33144 17.0548 9.26088 17.1367 9.1916 17.2175C9.03596 17.2175 9.04322 17.1503 9.40323 16.972C14.0646 11.5922 23.9249 2.07774 27.7487 5.22678C28.2245 8.17688 29.3475 14.591 30.0327 16.6465C29.2713 14.7432 25.7503 11.5647 17.7564 14.0771C12.3773 15.7677 10.1438 16.605 9.40323 16.972Z" fill="#0F1012"/>
<path d="M30.3243 30.9165C29.1823 26.3486 29.8485 19.486 30.3243 16.9165L8.41226 17.4165L30.3243 30.9165Z" fill="#0F1012"/>
<path d="M32.0311 16.9165L0.912262 16.9165" stroke="#0F1012"/>
<path d="M32.6021 0.0877686C31.0033 6.25444 32.3166 27.2097 33.1731 36.9165C39.7395 34.918 42.0234 31.2066 42.3089 31.2066C42.5944 31.2066 44.8783 17.7884 43.4509 10.3656C42.3089 4.42728 35.7425 1.03942 32.6021 0.0877686Z" fill="#0F1012"/>
</svg>
