<svg width="51" height="59" viewBox="0 0 51 59" fill="none" xmlns="http://www.w3.org/2000/svg">
<path d="M27.627 11.9133C27.5139 11.8153 27.4023 11.7191 27.292 11.6246C27.292 11.4123 27.3837 11.4222 27.627 11.9133C34.9657 18.2721 47.9449 31.723 43.6492 36.9393C39.6248 37.5884 30.875 39.1202 28.0709 40.0549C30.6673 39.0164 35.0032 34.2131 31.576 23.3083C29.2698 15.9703 28.1275 12.9236 27.627 11.9133Z" fill="#0F1012"/>
<path d="M8.60449 40.4526C14.8358 38.8948 24.1975 39.8035 27.7026 40.4526L27.0205 10.5613L8.60449 40.4526Z" fill="#0F1012"/>
<path d="M27.7021 42.7809V0.330078" stroke="#0F1012" stroke-width="1.36414"/>
<path d="M50.6594 43.5593C42.2471 41.3784 13.661 43.1699 0.419434 44.3382C3.14563 53.2958 8.20857 56.4114 8.20857 56.8009C8.20857 57.1903 26.513 60.306 36.6389 58.3587C44.7396 56.8009 49.3612 47.8434 50.6594 43.5593Z" fill="#0F1012"/>
</svg>
