<svg width="134" height="35" viewBox="0 0 134 35" fill="none" xmlns="http://www.w3.org/2000/svg">
<path d="M35.6648 24.0303H32.3992V11.1107H38.1548C39.4475 11.1107 40.4816 11.2672 41.2572 11.5802C42.0327 11.8931 42.5906 12.4034 42.9308 13.1109C43.271 13.8185 43.441 14.7777 43.441 15.9887C43.441 17.1317 43.271 18.0638 42.9308 18.7849C42.5906 19.4925 42.0327 20.0163 41.2572 20.3565C40.4816 20.6967 39.4475 20.8667 38.1548 20.8667H35.6648V24.0303ZM37.6242 13.7844H35.6648V18.193H37.6242C38.5902 18.193 39.2366 18.0297 39.5631 17.7032C39.8897 17.3766 40.053 16.8051 40.053 15.9887C40.053 15.2131 39.8897 14.6553 39.5631 14.3151C39.2366 13.9613 38.5902 13.7844 37.6242 13.7844Z" fill="black"/>
<path d="M29.9433 24.0303H26.6777V11.1107H29.9433V24.0303Z" fill="black"/>
<path d="M16.0715 24.0303H12.8059V11.1107H16.0715V16.05H20.97V11.1107H24.2356V24.0303H20.97V18.7033H16.0715V24.0303Z" fill="black"/>
<path d="M0.0816404 20.7038C0.680337 20.9079 1.33346 21.0712 2.04101 21.1937C2.76217 21.3025 3.47652 21.3569 4.18407 21.3569C5.15015 21.3569 5.8645 21.3161 6.32713 21.2345C6.80337 21.1392 7.11632 20.9964 7.266 20.8059C7.41567 20.6154 7.49051 20.3704 7.49051 20.0711C7.49051 19.8126 7.43608 19.6085 7.32723 19.4588C7.21837 19.3091 7.00747 19.1935 6.69452 19.1118C6.38156 19.0166 5.91893 18.9417 5.30663 18.8873L3.95956 18.7648C2.95266 18.6696 2.15667 18.4587 1.57158 18.1321C1.0001 17.8056 0.591893 17.3702 0.346972 16.8259C0.115657 16.268 0 15.6013 0 14.8257C0 13.9004 0.183691 13.1521 0.551073 12.5806C0.932061 12.0091 1.54436 11.5941 2.38798 11.3356C3.2316 11.0634 4.35416 10.9274 5.75565 10.9274C7.57895 10.9274 9.0825 11.1655 10.2663 11.6417L10.2051 14.4175L10.1438 14.4991C8.79676 14.0229 7.38846 13.7848 5.91893 13.7848C5.21138 13.7848 4.66711 13.8256 4.28612 13.9072C3.90513 13.9753 3.6398 14.0909 3.49013 14.2542C3.34045 14.4175 3.26562 14.6488 3.26562 14.9482C3.26562 15.2475 3.31324 15.472 3.40849 15.6217C3.51734 15.7714 3.72825 15.887 4.0412 15.9687C4.35416 16.0367 4.80998 16.1047 5.40868 16.1728L6.69452 16.3156C7.78305 16.4381 8.61987 16.6558 9.20496 16.9688C9.79005 17.2817 10.1914 17.7035 10.4092 18.2342C10.6405 18.7512 10.7561 19.384 10.7561 20.1323C10.7561 21.044 10.5588 21.806 10.1642 22.4183C9.78325 23.017 9.15733 23.466 8.2865 23.7653C7.41567 24.0647 6.2523 24.2143 4.79637 24.2143C3.8439 24.2143 2.98668 24.1667 2.2247 24.0715C1.46272 23.9626 0.721157 23.8198 0 23.6429V20.765L0.0816404 20.7038Z" fill="black"/>
<path d="M133.152 23.9709V24.0321H129.682C129.587 23.7055 129.472 23.3313 129.335 22.9095C129.213 22.4877 129.077 22.0387 128.927 21.5625H124.519C124.247 22.5149 123.995 23.3381 123.763 24.0321H120.294V23.9913L124.478 11.1125H128.968L133.152 23.9709ZM126.682 13.4392C126.546 14.1332 126.349 14.9768 126.09 15.9701C125.832 16.9634 125.56 17.9771 125.274 19.0112H128.192C127.893 17.9771 127.614 16.9634 127.356 15.9701C127.097 14.9768 126.9 14.1332 126.764 13.4392H126.682Z" fill="black"/>
<path d="M112.945 24.0321V13.8679H109.271V11.1125H119.885V13.8679H116.211V24.0321H112.945Z" fill="black"/>
<path d="M108.855 23.9709V24.0321H105.385C105.29 23.7055 105.174 23.3313 105.038 22.9095C104.916 22.4877 104.779 22.0387 104.63 21.5625H100.221C99.9491 22.5149 99.6974 23.3381 99.4661 24.0321H95.9963V23.9913L100.18 11.1125H104.671L108.855 23.9709ZM102.385 13.4392C102.249 14.1332 102.051 14.9768 101.793 15.9701C101.534 16.9634 101.262 17.9771 100.976 19.0112H103.895C103.596 17.9771 103.317 16.9634 103.058 15.9701C102.8 14.9768 102.602 14.1332 102.466 13.4392H102.385Z" fill="black"/>
<path d="M83.3441 24.0317V11.1121H88.9977C90.1271 11.1121 91.0727 11.2074 91.8347 11.3979C92.5967 11.5748 93.209 11.8945 93.6716 12.3571C94.1343 12.8198 94.4676 13.4661 94.6717 14.2961C94.8758 15.1125 94.9779 16.167 94.9779 17.4597C94.9779 18.8067 94.8758 19.9089 94.6717 20.7661C94.4676 21.6233 94.1343 22.2901 93.6716 22.7663C93.209 23.2425 92.5967 23.5759 91.8347 23.7664C91.0727 23.9433 90.1271 24.0317 88.9977 24.0317H83.3441ZM88.5283 13.8675H86.6097V21.2764H88.5283C89.3175 21.2764 89.9366 21.1879 90.3856 21.011C90.8482 20.8341 91.1748 20.4736 91.3653 19.9293C91.5694 19.385 91.6714 18.5618 91.6714 17.4597C91.6714 16.4119 91.5694 15.6364 91.3653 15.1329C91.1748 14.6159 90.8482 14.2757 90.3856 14.1124C89.9366 13.9491 89.3175 13.8675 88.5283 13.8675Z" fill="black"/>
<path d="M72.1376 17.3295L69.1878 17.3295L69.1878 14.3796L72.1376 14.3796L72.1376 17.3295Z" fill="#FF4016"/>
<path d="M65.1322 28.0234L62.1823 28.0234L62.1823 25.0736L65.1322 25.0736L65.1322 28.0234Z" fill="#FF4016"/>
<path d="M59.7219 34.5067L57.3003 34.5067L57.3003 32.0851L59.7219 32.0851L59.7219 34.5067Z" fill="#FF4016"/>
<path d="M47.009 34.5067L45.1929 34.5067L45.1929 32.6905L47.009 32.6905L47.009 34.5067Z" fill="#FF4016"/>
<path d="M70.0131 34.5067L67.5916 34.5067L67.5916 32.0851L70.0131 32.0851L70.0131 34.5067Z" fill="#FF4016"/>
<path d="M83.9359 34.5067L81.5144 34.5067L81.5144 32.0851L83.9359 32.0851L83.9359 34.5067Z" fill="#FF4016"/>
<path fill-rule="evenodd" clip-rule="evenodd" d="M45.7991 33.2964L58.5122 33.2964L58.5122 33.9018L45.7991 33.9018L45.7991 33.2964Z" fill="#FF4016"/>
<path fill-rule="evenodd" clip-rule="evenodd" d="M69.1884 32.817L81.7253 32.817L81.7253 33.5545L69.1884 33.5545L69.1884 32.817Z" fill="#FF4016"/>
<path fill-rule="evenodd" clip-rule="evenodd" d="M64.8329 27.318L68.5202 32.1115L67.6434 32.786L63.9561 27.9925L64.8329 27.318Z" fill="#FF4016"/>
<path fill-rule="evenodd" clip-rule="evenodd" d="M58.7438 32.9777L70.3589 16.0159L70.9673 16.4326L59.3523 33.3943L58.7438 32.9777Z" fill="#FF4016"/>
<path fill-rule="evenodd" clip-rule="evenodd" d="M63.3841 25.8729L70.2057 15.9112L71.1184 16.5363L64.2968 26.4979L63.3841 25.8729Z" fill="#FF4016"/>
<path fill-rule="evenodd" clip-rule="evenodd" d="M82.3881 32.9648L70.0355 16.5561L70.9193 15.8908L83.2719 32.2995L82.3881 32.9648Z" fill="#FF4016"/>
<path d="M55.1783 16.9621H58.1282V19.912H55.1783V16.9621Z" fill="#FF4016"/>
<path d="M62.1837 6.26923H65.1336V9.2191H62.1837V6.26923Z" fill="#FF4016"/>
<path d="M67.5941 -0.000244141H70.0156V2.42129H67.5941V-0.000244141Z" fill="#FF4016"/>
<path d="M80.3072 -0.000244141H82.1233V1.81591H80.3072V-0.000244141Z" fill="#FF4016"/>
<path d="M57.3029 -0.000244141H59.7245V2.42129H57.3029V-0.000244141Z" fill="#FF4016"/>
<path d="M43.3779 -0.000244141H45.7995V2.42129H43.3779V-0.000244141Z" fill="#FF4016"/>
<path fill-rule="evenodd" clip-rule="evenodd" d="M81.5169 1.21122H68.8038V0.605835H81.5169V1.21122Z" fill="#FF4016"/>
<path fill-rule="evenodd" clip-rule="evenodd" d="M58.1276 1.47441H45.5906V0.736938H58.1276V1.47441Z" fill="#FF4016"/>
<path fill-rule="evenodd" clip-rule="evenodd" d="M62.4834 6.97484L58.796 2.1813L59.6728 1.50684L63.3602 6.30038L62.4834 6.97484Z" fill="#FF4016"/>
<path d="M58.5256 1.21069H44.5898V1.92907C48.5538 7.07746 56.2461 17.7151 56.3948 17.8588C56.5434 18.0024 63.6594 7.56723 63.6594 7.56723L58.5256 1.21069Z" fill="#DE310B" fill-opacity="0.27"/>
<path d="M68.8047 33.2967L81.9373 33.2967L82.1231 32.0859C78.1591 26.9375 70.6208 16.6486 70.6208 16.6486C70.6208 16.6486 65.8267 23.2252 63.6589 26.6375L68.8047 33.2967Z" fill="#DE310B" fill-opacity="0.27"/>
<path fill-rule="evenodd" clip-rule="evenodd" d="M68.5721 1.31505L56.957 18.2768L56.3486 17.8601L67.9636 0.898376L68.5721 1.31505Z" fill="#FF4016"/>
<path fill-rule="evenodd" clip-rule="evenodd" d="M63.9319 8.41865L57.1103 18.3803L56.1976 17.7553L63.0192 7.79364L63.9319 8.41865Z" fill="#FF4016"/>
<path fill-rule="evenodd" clip-rule="evenodd" d="M44.9256 1.32678L57.2782 17.7355L56.3944 18.4008L44.0418 1.99209L44.9256 1.32678Z" fill="#FF4016"/>
</svg>
