<svg class='image-send__primary-wave' width="290" height="17" viewBox="0 0 290 17" fill="none" xmlns="http://www.w3.org/2000/svg">
    <path d="M1 15.5C7 15.6353 14.173 1 24.4249 6.94404C38.9483 15.3647 38.4798 15.3647 49.2552 9.42069C60.0307 3.47669 65.1842 3.47668 72.6801 9.42069C80.1761 15.3647 81.1131 15.3647 91.8885 9.42069C102.664 3.47669 104.069 0.504697 113.908 9.42069C123.746 18.3367 131.242 9.42069 136.864 4.96269C146.234 -2.4673 154.667 11.402 161.226 15.3647C167.785 19.3274 175.75 3.47667 183.246 2.98133C190.742 2.486 198.237 13.3834 205.733 13.3834C213.229 13.3834 218.851 1 227.753 1C236.654 1 243.682 13.3834 249.304 13.3834C254.926 13.3834 262.422 1 269.918 1C275.914 1 284.5 15.5 291 15.5" stroke="black" fill='none'/>
</svg>