<svg width="113" height="71" viewBox="0 0 113 71" fill="none" xmlns="http://www.w3.org/2000/svg">
<path d="M41.3831 64.7248C49.7298 56.9293 46.832 47.1338 45.7832 39.9872C43.2766 34.5147 37.394 20.6309 33.9168 8.87628C29.5702 -5.81698 19.4235 12.0984 14.6502 19.3694C9.87682 26.6405 2.2546 36.8848 4.22788 45.3559C6.20115 53.827 12.0233 53.7025 17.7699 60.5247C23.5165 67.3469 33.0365 72.5203 41.3831 64.7248Z" fill="white" stroke="black" stroke-width="0.5" stroke-linecap="round"/>
<path d="M61.7037 44.64C70.8626 51.4628 79.9844 46.8648 86.8295 44.5583C91.7404 41.1348 94.6996 39.6432 105.5 34.1993L105.678 34.1092C119.361 27.2122 109.571 13.648 101.565 10.2477C93.5594 6.84745 89.1292 12.3151 81.1458 15.7673C73.1624 19.2195 67.3139 13.7853 61.6258 20.6563C55.9377 27.5273 52.5448 37.8172 61.7037 44.64Z" fill="#DDE2EA" stroke="black" stroke-width="0.5" stroke-linecap="round"/>
</svg>
