<svg width="66" height="38" viewBox="0 0 66 38" fill="none" xmlns="http://www.w3.org/2000/svg">
<path d="M6.16963 29.1005C3.90714 27.8542 1.82714 30.4506 1 30.866V33.4624L65 34.9163V30.4506C64.0005 29.5852 61.6708 27.8542 60.3473 27.8542C58.6931 27.8542 57.0388 30.4506 55.7981 30.4506C54.5574 30.4506 53.0065 27.8542 51.042 27.8542C49.0775 27.8542 47.8368 30.4506 46.1826 30.4506C44.5283 30.4506 42.874 28.1658 41.2197 28.2697C39.5654 28.3735 37.8078 31.6969 36.3603 30.866C34.9128 30.0352 33.0517 27.1273 30.9838 28.6851C29.7431 29.6198 28.0889 31.4891 25.9176 29.6198C23.7464 27.7504 23.4362 28.3735 21.0582 29.6198C18.6801 30.866 18.4733 30.866 16.8191 29.6198C15.1648 28.3735 14.0275 28.3735 11.6494 29.6198C9.27141 30.866 9.3748 30.866 6.16963 29.1005Z" fill="white"/>
<path d="M8.72412 36.4582C9.27755 35.7971 10.6957 34.4749 11.9409 34.4749C13.4974 34.4749 14.6389 36.7888 15.9879 36.8989C17.3369 37.0091 18.167 34.4749 20.2424 34.4749C22.3177 34.4749 22.9403 36.8989 24.3931 36.8989" stroke="black" stroke-width="0.8"/>
<path d="M43.3724 36.0197C43.716 35.4909 44.6713 34.4334 45.7434 34.4334C47.0835 34.4334 47.8051 36.0197 48.7328 36.0197C49.6606 36.0197 50.6915 34.136 51.9285 34.0369C53.1655 33.9377 54.6087 36.0197 55.8457 36.0197C57.0828 36.0197 57.5982 34.83 59.0414 34.4334" stroke="black" stroke-width="0.8"/>
<path d="M1 31.0244C1.82714 30.5871 3.90714 27.8542 6.16963 29.166C9.3748 31.0244 9.27141 31.0244 11.6494 29.7126C14.0275 28.4008 15.1648 28.4008 16.8191 29.7126C18.4733 31.0244 18.6801 31.0244 21.0582 29.7126C23.4362 28.4008 23.7464 27.7449 25.9176 29.7126C28.0889 31.6803 29.7431 29.7126 30.9838 28.7288C33.0517 27.0891 34.9128 30.1499 36.3603 31.0244C37.8078 31.8989 39.5654 28.4008 41.2197 28.2915C42.874 28.1822 44.5283 30.5871 46.1826 30.5871C47.8368 30.5871 49.0775 27.8542 51.042 27.8542C53.0065 27.8542 54.5574 30.5871 55.7981 30.5871C57.0388 30.5871 58.6931 27.8542 60.3473 27.8542C61.6708 27.8542 64.0005 29.6762 65 30.5871" stroke="black" stroke-width="0.8"/>
<path d="M30.6827 28.2957L31.0137 26.5301L31.7862 23.4405L32.4482 21.0129L33.5517 16.5991L34.4344 13.6198L35.4275 11.1922L36.862 9.31634L38.1862 8.65427L38.8482 7.66117L39.731 5.45427L39.6632 4.5736C39.6358 4.21725 39.7422 3.86347 39.9616 3.58135L40.0543 3.46219C40.268 3.18741 40.5967 3.02669 40.9448 3.02669L41.7172 0.268066L45.0275 0.930135L43.8137 4.01979L45.0275 4.68186L44.2551 5.78531L43.4827 6.44738L42.8206 9.31634L43.1517 10.3094L43.7034 11.3025L43.4827 12.8474L42.931 15.0543L41.6068 19.5784L40.062 25.0957L39.3999 27.5232L38.7379 29.6198C38.3701 30.6497 37.6344 32.4888 37.6344 32.4888C37.6344 32.4888 37.1195 34.7324 36.862 35.4681L36.0896 36.6819L34.4344 37.0129H32.6689L31.0137 36.4612L29.3586 35.137L29.1379 32.9301L30.131 30.8336L30.6827 28.2957Z" fill="white"/>
<path fill-rule="evenodd" clip-rule="evenodd" d="M29.469 33.5921C29.2924 34.3866 30.131 35.3209 30.5724 35.6887C32.5264 37.1542 34.4804 36.6301 35.2855 36.4141C35.3897 36.3861 35.4747 36.3633 35.5379 36.3507C36.0897 36.2404 36.4207 35.6886 36.7517 34.4748C37.0828 33.261 37.8552 30.8335 38.0759 30.5024C38.2524 30.2376 39.2529 26.5668 39.731 24.7645C40.3931 22.4473 41.8276 17.4597 42.269 16.0473C42.6828 14.7231 42.9104 13.5852 43.0914 12.68C43.1517 12.3783 43.2069 12.1024 43.2621 11.8542C43.456 10.9813 43.0534 10.6199 42.8031 10.3953C42.7687 10.3644 42.7371 10.3361 42.7104 10.3093C42.4897 10.0886 42.4897 9.97829 42.4897 9.20587C42.4897 8.58794 42.8575 7.33001 43.0414 6.77829C43.115 6.37369 43.3945 5.54243 43.9241 5.45415C44.5862 5.34381 44.6966 4.68174 44.3655 4.57139C44.0345 4.46105 43.7035 4.3507 43.5931 4.13001C43.5255 3.99471 43.8311 3.07141 44.0777 2.32631L44.0777 2.3263C44.2334 1.85605 44.3655 1.45678 44.3655 1.37139C44.3655 1.1507 44.1448 1.04039 43.5931 1.04039C43.3429 1.04039 43.2288 0.949584 43.1171 0.860642C42.9826 0.753498 42.8514 0.649066 42.4897 0.70936C41.8276 0.819705 41.6069 1.81281 41.4966 2.47488C41.3862 3.13695 41.0552 3.46798 40.7241 3.46798C40.3931 3.46798 39.8414 4.0197 40.0621 4.35074C40.2386 4.61557 40.2092 5.12315 40.1724 5.34384C39.6362 7.13131 39.2447 7.76058 38.8808 8.34561L38.8807 8.34565L38.8807 8.34576C38.7953 8.48298 38.7114 8.61778 38.6276 8.76453C38.3937 9.1738 38.1599 9.27328 37.8439 9.40767C37.5636 9.52691 37.2186 9.67364 36.7517 10.0887C35.9064 10.8401 35.2209 12.7909 34.8315 13.8992C34.7634 14.0929 34.7044 14.2608 34.6552 14.3921C34.4271 15.0004 33.8846 17.128 33.461 18.7894L33.461 18.7895L33.461 18.7897L33.461 18.7897C33.2698 19.5393 33.1029 20.194 33 20.5714C32.669 21.7852 31.2345 27.1921 30.9035 29.068C30.7019 30.2104 30.2956 31.271 29.9589 32.15C29.7428 32.7143 29.5553 33.2038 29.469 33.5921ZM36.2 11.7438C35.4056 13.1562 34.7656 15.7162 34.5449 16.8197C34.4566 17.2611 37.4874 17.9599 38.8483 18.2542C38.9942 18.299 39.1335 18.3432 39.2659 18.3852L39.2663 18.3853C40.1759 18.6737 40.7636 18.8601 40.9449 18.4748C41.8276 16.599 42.7104 12.2955 42.7104 11.5231C42.7104 10.9872 42.2855 10.7169 41.9884 10.5279C41.8573 10.4445 41.7511 10.3769 41.7173 10.3093C41.6069 10.0886 41.6069 9.20588 42.1587 7.88174C42.6 6.82243 42.4161 6.70473 42.269 6.77829C41.3863 6.88864 41.1656 6.77829 40.9449 6.66795C40.8149 6.60297 40.838 6.15536 40.8564 5.79828V5.79827C40.8693 5.54897 40.8799 5.34381 40.8345 5.34381C40.7463 5.34381 40.5035 6.07944 40.3931 6.44726C39.6207 8.54381 39.2897 9.09553 38.6276 9.42657C38.5605 9.46012 38.4923 9.49255 38.4228 9.52556L38.4225 9.52568L38.4224 9.52572L38.4224 9.52574C37.8064 9.81836 37.0923 10.1576 36.2 11.7438ZM42.8207 1.37136C43.0414 1.40814 43.5048 1.50377 43.5931 1.59205C43.7035 1.70239 43.8138 1.92308 43.5931 2.25412C43.495 2.40124 43.3969 2.72274 43.2989 3.04424C43.1763 3.44611 43.0537 3.84799 42.931 3.90929C42.7104 4.01963 42.4897 4.01963 42.1586 3.79894C41.8276 3.57826 41.9379 3.02653 42.0483 2.58515C42.1586 2.14377 42.3793 1.27891 42.8207 1.37136ZM42.1586 4.35067C42.7766 4.43894 43.3724 4.75527 43.5931 4.90239C43.5931 5.07558 42.9815 5.0449 42.5583 5.02367L42.5582 5.02367L42.5581 5.02367L42.5581 5.02366C42.442 5.01785 42.3402 5.01274 42.269 5.01274C41.9379 5.01274 41.3862 4.79205 41.0552 4.57136C40.7242 4.35067 40.8345 4.12998 40.9448 4.12998C40.9879 4.12998 41.0646 4.1468 41.1881 4.17387C41.3809 4.21613 41.6878 4.2834 42.1586 4.35067ZM41.4966 6.22657C41.4083 6.1383 41.5333 5.67485 41.6069 5.45416C42.1586 5.23347 42.4897 5.56451 42.3793 5.78519C42.3464 5.85105 42.3233 5.91691 42.3012 5.97983L42.3012 5.97985C42.2493 6.12778 42.2031 6.25951 42.0483 6.33692C41.8276 6.44726 41.6069 6.33692 41.4966 6.22657ZM32.7794 22.8887C32.7794 22.4473 33.8092 19.2473 34.3242 17.7024C34.3242 17.7024 34.3242 17.5921 35.3173 17.8128C36.7341 18.1276 40.6138 19.2473 40.7242 19.468C40.7837 19.5869 40.4584 20.6036 40.1113 21.6884L40.1113 21.6885C39.8145 22.6162 39.5018 23.5938 39.4 24.1024C39.1977 25.1139 38.9954 25.1055 38.7931 25.0971C38.7748 25.0963 38.7564 25.0955 38.738 25.0955H37.3035C36.6414 25.0955 34.3242 24.3231 33.6621 24.1024C33 23.8818 32.7794 23.4404 32.7794 22.8887ZM32.5587 24.2127C32.8162 24.3599 33.4856 24.6983 34.1035 24.8748C34.8759 25.0955 36.5311 25.4265 37.0828 25.5369C37.3013 25.5806 37.6234 25.5897 37.933 25.5984C38.4054 25.6117 38.8484 25.6242 38.8484 25.7576C38.8484 25.9783 38.1863 29.0679 36.6415 32.8196C36.4943 33.5185 36.1118 35.0486 35.7587 35.5783C35.3173 36.2403 32.5587 36.5714 30.9035 35.1369C29.3888 33.8241 30.4617 31.8643 30.8238 31.203C30.8574 31.1417 30.8848 31.0916 30.9035 31.0541C31.0654 30.7304 31.5241 28.5664 31.8006 27.2617C31.9011 26.7876 31.9776 26.4269 32.007 26.3093C32.035 26.1971 32.0774 26.0024 32.1267 25.7756C32.2714 25.1101 32.4764 24.1673 32.5587 24.2127Z" fill="black"/>
<path d="M40.8344 14.0611C40.7461 14.326 40.7241 14.7232 40.8344 14.7232C41.4965 14.7232 42.2689 12.2956 42.3792 11.7439C42.4896 11.1922 41.6068 11.3025 41.3861 11.4129C41.1654 11.5232 41.1654 11.9646 41.1654 12.406C41.1654 12.8473 40.9448 13.7301 40.8344 14.0611Z" fill="black"/>
<path d="M34.2423 33.8139C33.6244 33.2842 32.0722 33.1518 31.3733 33.1518C30.6745 33.1518 31.1527 32.4596 31.4837 32.4897C32.4547 32.578 33.8719 32.9792 34.3527 33.3725C35.3237 34.167 35.3458 34.3656 35.2354 34.3656C35.1618 34.4024 34.8602 34.3435 34.2423 33.8139Z" fill="black"/>
</svg>
