<svg width="76" height="79" viewBox="0 0 76 79" fill="none" xmlns="http://www.w3.org/2000/svg">
<path d="M9.05963 73.866C19.4677 81.6933 29.8758 76.4751 37.6818 73.866C43.3195 69.9523 57.7173 60.5596 70.207 54.2978C85.8192 46.4705 63.702 38.6432 54.5949 34.7295C45.4879 30.8159 32.4778 24.2931 23.3707 28.2068C14.2636 32.1204 15.5647 38.6432 9.05963 46.4705C2.55458 54.2978 -1.34845 66.0387 9.05963 73.866Z" stroke="black" stroke-width="0.5" stroke-linecap="round"/>
<path d="M29.5831 54H11.5559C12.1208 53.4944 13.5281 52.4528 14.6375 52.3314C16.0242 52.1798 18.1813 53.8483 18.0272 52.9382C17.8731 52.0281 13.8671 49.2977 13.8671 47.3258C13.8671 45.7483 13.0453 44.6461 12.6344 44.2921C14.7299 44.6562 17.3082 47.7809 18.3354 49.2977C18.4586 48.2056 17.4622 46.3146 16.9486 45.5056L20.6465 47.9326C20.2768 46.1124 13.713 32.6124 10.4773 26.0899C9.73778 27.4247 9.86103 32.4101 10.0151 34.7359C7.30333 32.1876 8.3716 27.7079 9.24471 25.7865C7.76556 26.0292 6.57402 29.2247 6.16314 30.7921L5.54683 30.6404L5.70091 31.5506C5.45438 31.6719 5.08459 33.2191 4.93051 33.9775C2.46526 28.1528 6.4713 25.4831 8.78248 24.8764C7.18007 24.391 4.93052 25.6854 4.00604 26.3933L3.23565 26.0899V26.8483L0.770393 28.6685C0.770393 27.9101 1.07855 26.0899 2.31118 24.8764C3.54381 23.6629 7.13897 23.6629 8.78248 23.8146C8.28943 23.3292 6.7281 23.0056 6.00907 22.9045L5.70091 22.4494L5.23867 22.9045H3.23565L2.92749 22.4494C2.43444 22.2067 0.770393 22.6517 0 22.9045L1.84894 21.236C4.68399 19.9011 7.96072 21.7921 9.24471 22.9045C9.09063 22.1461 8.87492 20.1742 9.24471 18.3539C9.6145 16.5337 12.4804 15.7753 13.8671 15.6236L12.6344 17.4438L11.864 17.5955L12.1722 18.3539C11.8127 18.7584 11.032 19.6584 10.7855 20.0225C10.539 20.3865 10.58 22.0955 10.6314 22.9045C11.0936 21.9944 12.4187 20.0831 14.0211 19.7191C16.0242 19.264 19.722 21.2369 19.8761 21.236C16.2108 21.236 12.9141 22.9107 11.5634 23.8506C12.0032 23.6018 13.1355 23.3027 15.2538 23.5112C18.3353 23.8146 21.1088 27.6067 21.1088 27.7584C21.1088 27.9101 19.722 27.6067 18.7976 27.455C18.058 27.3337 17.4622 26.6966 17.2568 26.3933C17.3081 26.7472 17.38 27.4247 17.2568 27.3034C17.2568 27.1517 15.7674 26.6461 15.0997 26.3933L14.6375 25.4831L14.3293 26.0899C13.5897 25.4831 11.864 25.4326 11.0936 25.4831L21.4169 46.7191C21.6634 44.4135 23.3686 40.1966 24.1903 38.3764L36.6707 12.7416C35.6846 12.1348 33.5891 13.1966 32.6646 13.8034V13.1966C32.5619 13.5 32.3257 14.1067 32.2024 14.1067C32.0791 14.1067 30.1994 14.7135 29.2749 15.0169V13.8034C29.2749 13.6517 28.9668 14.5618 28.6586 15.0169C28.4121 15.3809 25.7825 15.573 24.4985 15.6236C24.8066 15.118 25.5462 13.9854 26.0393 13.5C26.6556 12.8933 28.9668 11.5281 30.9698 10.7697C32.5722 10.1629 35.4381 10.5169 36.6707 10.7697C36.5474 10.2843 35.0785 9.85955 34.3595 9.70786V8.49438C34.1541 8.79775 33.7124 9.34382 33.5891 9.10112C33.4659 8.85843 31.4834 8.5955 30.5075 8.49438L30.9698 7.58427L29.429 8.19101C28.8127 7.94831 26.5015 7.68539 25.423 7.58427C27.1178 6.92696 30.939 5.58202 32.6646 5.46067C34.3903 5.33932 36.7734 7.83708 37.7492 9.10112C38.2423 6.55281 36.722 4.70225 35.9003 4.0955L36.0544 2.88202L35.284 2.73034L33.5891 0C34.5136 0.252809 36.794 1.09213 38.5196 2.42697C40.2453 3.7618 40.0604 7.63484 39.7523 9.4045C47.148 3.64046 50.8246 9.33922 51 9.4045C50.5069 9.16182 48.432 9.00001 47.4562 8.94945L46.994 9.4045H44.6828L44.2205 8.94945L43.6042 9.70786C42.1251 9.46517 40.7281 10.3146 40.2145 10.7697C48.7196 9.55618 50.3323 14.2079 50.0755 16.6854C49.9523 15.9573 47.9698 14.9663 46.994 14.5618V13.5L45.9154 14.1067L44.3746 13.1966L44.2205 12.4382L43.7583 12.7416C42.4024 11.7708 40.8308 12.0337 40.2145 12.2865C47.7335 14.7135 46.3263 20.882 44.6828 23.6629C44.806 22.5708 44.1178 21.1854 43.7583 20.6292L44.3746 19.264L43.142 19.5674L42.3716 17.7472L42.5257 15.927H41.7553C41.3855 14.5921 39.9577 13.5506 39.29 13.1966C40.1529 14.5315 40.574 16.8876 40.6767 17.8989C41.0465 22.3888 39.1873 24.4213 38.2115 24.8764C38.5813 24.391 38.8792 22.955 38.9819 22.2977L38.2115 23.0562V21.0843L38.9819 20.6292L38.2115 20.1742L38.5196 17.5955L38.9819 17.2921L38.5196 16.382C38.7662 15.4112 38.2115 14.0562 37.9033 13.5C34.2568 21.1854 26.5631 37.2843 24.9607 40.1966C23.3583 43.109 22.6495 47.4775 22.4955 49.2977L24.1903 45.5056L24.0362 47.3258L25.423 45.0506L24.9607 47.0225L27.8882 44.5955L24.1903 49.6011C27.2719 49.1157 29.3776 50.7135 30.0453 51.573C29.3263 51.1685 27.7649 50.6022 27.2719 51.573C26.7788 52.5438 28.6072 53.5955 29.5831 54Z" fill="#0F1012"/>
</svg>
