<svg width="132" height="318" viewBox="0 0 132 318" fill="none" xmlns="http://www.w3.org/2000/svg">
<path d="M6.0181 318H-100.024C-96.701 315.022 -88.4229 308.889 -81.8973 308.174C-73.7402 307.281 -61.0513 317.107 -61.9577 311.747C-62.864 306.388 -86.429 290.309 -86.429 278.697C-86.429 269.407 -91.2628 262.916 -93.6797 260.831C-81.3535 262.975 -66.1873 281.376 -60.145 290.309C-59.4199 283.877 -65.2809 272.742 -68.3021 267.977L-46.5498 282.27C-48.725 271.551 -87.3353 192.051 -106.369 153.64C-110.719 161.501 -109.994 190.86 -109.088 204.556C-125.039 189.549 -118.755 163.169 -113.619 151.854C-122.32 153.283 -129.329 172.101 -131.746 181.331L-135.372 180.438L-134.465 185.798C-135.915 186.512 -138.091 195.624 -138.997 200.09C-153.498 165.789 -129.934 150.067 -116.338 146.494C-125.764 143.636 -138.997 151.258 -144.435 155.427L-148.967 153.64V158.107L-163.468 168.826C-163.468 164.36 -161.656 153.64 -154.405 146.494C-147.154 139.348 -126.006 139.348 -116.338 140.242C-119.239 137.383 -128.423 135.477 -132.653 134.882L-134.465 132.202L-137.184 134.882H-148.967L-150.779 132.202C-153.68 130.773 -163.468 133.393 -168 134.882L-157.124 125.056C-140.447 117.195 -121.172 128.331 -113.619 134.882C-114.526 130.416 -115.795 118.803 -113.619 108.084C-111.444 97.3651 -94.5861 92.8989 -86.429 92.0056L-93.6798 102.725L-98.2115 103.618L-96.3988 108.084C-98.5136 110.466 -103.106 115.766 -104.556 117.91C-106.006 120.054 -105.764 130.118 -105.462 134.882C-102.743 129.522 -94.9487 118.267 -85.5227 116.124C-73.7402 113.444 -51.988 125.062 -51.0816 125.056C-72.6421 125.056 -92.0344 134.919 -99.9798 140.453C-97.3931 138.989 -90.7321 137.227 -78.272 138.455C-60.1451 140.242 -43.8309 162.573 -43.8309 163.466C-43.8309 164.36 -51.988 162.573 -57.426 161.68C-61.7765 160.965 -65.281 157.213 -66.4895 155.427C-66.1874 157.511 -65.7644 161.501 -66.4895 160.786C-66.4895 159.893 -75.2508 156.916 -79.1783 155.427L-81.8973 150.067L-83.71 153.64C-88.0605 150.067 -98.2116 149.77 -102.743 150.067L-42.0182 275.124C-40.568 261.546 -30.5378 236.713 -25.704 225.994L47.7099 75.0337C41.9093 71.4606 29.5831 77.7135 24.145 81.2865V77.7134C23.5408 79.5 22.151 83.073 21.4259 83.073C20.7009 83.073 9.64346 86.646 4.2054 88.4326V81.2865C4.2054 80.3932 2.39272 85.7528 0.580017 88.4326C-0.870132 90.5764 -16.3384 91.7078 -23.8913 92.0056C-22.0786 89.0281 -17.7281 82.3584 -14.8278 79.5C-11.2025 75.9269 2.39272 67.8876 14.1752 63.4213C23.6012 59.8483 40.4592 61.9326 47.7099 63.4213C46.9849 60.5629 38.3444 58.0618 34.1148 57.1685V50.0225C32.9063 51.809 30.3081 55.0247 29.5831 53.5955C28.858 52.1663 17.1963 50.618 11.4562 50.0225L14.1752 44.6629L5.11174 48.2359C1.48637 46.8067 -12.1088 45.2584 -18.4532 44.6629C-8.48343 40.7921 13.9939 32.8719 24.145 32.1573C34.296 31.4427 48.3142 46.1517 54.0544 53.5955C56.9547 38.5888 48.0121 27.691 43.1782 24.118L44.0846 16.9719L39.5528 16.0786L29.5831 0C35.0211 1.48876 48.435 6.43146 58.5861 14.2921C68.7371 22.1528 67.6495 44.9607 65.8368 55.3821C109.113 21.6166 130.74 54.6468 131.982 55.3733C131.988 55.3762 131.994 55.3792 132 55.3821C131.995 55.3801 131.989 55.3772 131.982 55.3733C129.05 53.949 116.883 52.9995 111.154 52.7023L108.435 55.3821H94.8399L92.1208 52.7023L88.4955 57.1685C79.7945 55.7393 71.577 60.7416 68.5559 63.4213C118.586 56.2753 128.073 83.6685 126.562 98.2584C125.837 93.9708 114.175 88.1348 108.435 85.7528V79.5L102.091 83.073L93.0272 77.7134L92.1208 73.2472L89.4018 75.0337C81.426 69.3168 72.1812 70.8651 68.5559 72.3539C112.785 86.646 104.508 122.972 94.8399 139.348C95.5649 132.917 91.5166 124.758 89.4018 121.483L93.0272 113.444L85.7764 115.23L81.2447 104.511L82.151 93.7921H77.6193C75.4441 85.9314 67.0453 79.7977 63.1178 77.7134C68.1933 85.5741 70.6707 99.4494 71.2749 105.404C73.4501 131.845 62.5136 143.815 56.7734 146.494C58.9486 143.636 60.7009 135.18 61.3051 131.309L56.7734 135.775V124.163L61.3051 121.483L56.7734 118.803L58.5861 103.618L61.3051 101.831L58.5861 96.4719C60.0362 90.755 56.7734 82.7752 54.9607 79.5C33.5105 124.758 -11.7463 219.563 -21.1723 236.713C-30.5982 253.864 -34.7674 279.59 -35.6738 290.309L-25.704 267.977L-26.6103 278.697L-18.4532 265.298L-21.1723 276.91L-3.95171 262.618L-25.704 292.095C-7.57707 289.237 4.80963 298.646 8.73712 303.708C4.50752 301.326 -4.67677 297.991 -7.57707 303.708C-10.4774 309.425 0.277908 315.618 6.0181 318Z" fill="white"/>
</svg>
