<svg width="56" height="36" viewBox="0 0 56 36" fill="none" xmlns="http://www.w3.org/2000/svg">
<path d="M3.56202 21.3773C5.62069 25.9338 10.0894 26.1095 13.1999 26.6793C15.8213 26.4094 22.4046 25.9222 27.767 26.1331C34.47 26.3966 28.4686 19.671 26.125 16.6698C23.7814 13.6685 20.6056 9.06806 16.816 8.6953C13.0264 8.32255 12.2595 10.754 8.62306 12.1775C4.98663 13.601 1.50336 16.8207 3.56202 21.3773Z" fill="#DDE2EA" stroke="black" stroke-width="0.5" stroke-linecap="round"/>
<path d="M28.5358 14.7502C30.5945 19.3067 35.0632 19.4824 38.1737 20.0522C40.7807 19.7838 42.2304 19.8408 47.5212 20.0488L47.6087 20.0522C54.3118 20.3157 53.4424 13.0439 51.0988 10.0427C48.7552 7.04141 45.8983 8.19458 42.1087 7.82183C38.3191 7.44907 37.2333 4.12689 33.5968 5.55039C29.9604 6.97389 26.4771 10.1936 28.5358 14.7502Z" fill="#F9FCFF" stroke="black" stroke-width="0.5" stroke-linecap="round"/>
</svg>
